<svg width="1000" height="1000" viewBox="0 0 1000 1000" fill="none" xmlns="http://www.w3.org/2000/svg">
<path d="M493.907 60.0061C494.941 52.3188 506.059 52.3188 507.093 60.0062L557.707 436.21C558.105 439.17 560.427 441.502 563.385 441.913L934.512 493.411C942.163 494.472 942.163 505.528 934.512 506.589L563.385 558.087C560.427 558.498 558.105 560.83 557.707 563.79L507.093 939.994C506.059 947.681 494.941 947.681 493.907 939.994L443.294 563.79C442.895 560.83 440.573 558.498 437.615 558.087L66.4875 506.589C58.8366 505.528 58.8366 494.472 66.4875 493.411L437.615 441.913C440.573 441.502 442.895 439.17 443.294 436.21L493.907 60.0061Z" fill="url(#paint0_linear_1_4)"/>
<defs>
<linearGradient id="paint0_linear_1_4" x1="500.5" y1="11" x2="500.5" y2="989" gradientUnits="userSpaceOnUse">
<stop stop-color="#0082EE"/>
<stop offset="1" stop-color="#00D6DA"/>
</linearGradient>
</defs>
</svg>
