<svg id="Illustrations" xmlns="http://www.w3.org/2000/svg" width="480" height="480" viewBox="0 0 480 480"><polyline points="270.57 137.35 283.09 115.29 301.35 132.28 316.38 105.52 331.61 118.75 342.04 97.3" fill="none" stroke="#2c3b5e" stroke-miterlimit="10" stroke-width="3"/><polyline points="332.96 98.3 342.61 96.09 345.74 104.7" fill="none" stroke="#2c3b5e" stroke-miterlimit="10" stroke-width="3"/><g><rect x="183.96" y="227.91" width="204.13" height="13.7" fill="none" stroke="#2c3b5e" stroke-miterlimit="10" stroke-width="3"/><polyline points="340.15 227.53 368.32 166.92 292.61 166.92 264.44 227.53" fill="none" stroke="#2c3b5e" stroke-miterlimit="10" stroke-width="3"/><path d="M185.48,228.34c-12.5-1.93-23.26-11.47-27.67-23.32-4.41-11.86-2.73-25.58,3.47-36.6,6.2-11.02,16.63-19.38,28.36-24.11" fill="none" stroke="#2c3b5e" stroke-miterlimit="10" stroke-width="3"/><path d="M204.93,228.3c-2.32-6.97.92-15.14,6.93-19.38s14.19-4.75,21.08-2.16c6.88,2.58,12.48,7.96,16.27,14.27" fill="none" stroke="#2c3b5e" stroke-miterlimit="10" stroke-width="3"/><path d="M224.91,213.59s11.48,6.57,16.43,13.95" fill="none" stroke="#2c3b5e" stroke-miterlimit="10" stroke-width="3"/><path d="M218.07,216.74s7.7,5.12,12.13,11.17" fill="none" stroke="#2c3b5e" stroke-miterlimit="10" stroke-width="3"/><path d="M211.81,221.72s4.3,2.79,6.26,6.62" fill="none" stroke="#2c3b5e" stroke-miterlimit="10" stroke-width="3"/><path d="M278.01,201.25c-6.64-4.46-10.89-11.67-14.21-18.94s-5.94-14.94-10.37-21.6c-4.43-6.66-11.11-12.39-19.05-13.3,0,0,5.83,32.35-7.69,57.78" fill="none" stroke="#2c3b5e" stroke-miterlimit="10" stroke-width="3"/><path d="M195.17,144.31s-1.37,40.98,19.76,62.86" fill="none" stroke="#2c3b5e" stroke-miterlimit="10" stroke-width="3"/><path d="M181.48,193.04c.59.39,12.64,14.94,30.38,15.88" fill="none" stroke="#2c3b5e" stroke-miterlimit="10" stroke-width="3"/><path d="M185.39,145.41c0,.44-3.91,20.24-3.91,20.24l8.17,1.27-5.7,10.28,16.11,15.85" fill="none" stroke="#2c3b5e" stroke-miterlimit="10" stroke-width="3"/><polyline points="236.65 195.41 249.02 176.74 241.35 170.23 245.31 160.76 239.21 148.6" fill="none" stroke="#2c3b5e" stroke-miterlimit="10" stroke-width="3"/><path d="M195.79,157.82s17.33,13.3,39.66,0" fill="none" stroke="#2c3b5e" stroke-miterlimit="10" stroke-width="3"/><path d="M194.89,139.3c1.47-1.63,8.5-12.78,6.46-14.62-6.2-1.16-7.38-4.94-7.7-7.16-.31-2.18,1.33-4.67,3.49-5.28,2.33-.66,4.18,1.96,5.98,2.97,2.99,1.68,6.91.51,9.49-1.75s4.2-5.39,5.99-8.32,3.99-5.84,7.16-7.15c4.93-2.05,10.94.63,13.87,5.1s3.23,10.23,2.24,15.48c-1.36,7.2-5.17,14.1-11.19,18.28s-14.33,5.25-20.83,1.86" fill="none" stroke="#2c3b5e" stroke-miterlimit="10" stroke-width="3"/><path d="M235.67,141.76c6.27-.72,14.21-1.15,15.46-9.13.68-4.29-1.38-8.52-1.73-12.86-.54-6.68,2.99-13.16,2.66-19.86-.45-9.07-8.11-16.5-16.66-19.55-9.92-3.55-25.57-4.74-35.07.33-6.17,3.3-11.05,9.33-12,16.27-.71,5.19.71,10.76-1.43,15.54-1.93,4.31-6.31,6.93-9.2,10.66-2.92,3.75-4.27,8.7-3.65,13.42.61,4.72,3.18,9.15,6.97,12.03" fill="none" stroke="#2c3b5e" stroke-miterlimit="10" stroke-width="3"/><path d="M228.42,111.21c-2.03,6.1,1.16,13.69,1.16,13.69l-7.89,1.39" fill="none" stroke="#2c3b5e" stroke-miterlimit="10" stroke-width="3"/><path d="M215.25,128.21s1.64,2.99,5.63,4.06" fill="none" stroke="#2c3b5e" stroke-miterlimit="10" stroke-width="3"/><circle cx="220.99" cy="115.29" r="1.41" fill="#2c3b5e"/><circle cx="234.22" cy="116.7" r="1.41" fill="#2c3b5e"/><path d="M164.89,216.74c-.24,1.47-9.24,50.26-9.24,50.26,0,0,18.11,3.81,34-1.22" fill="none" stroke="#2c3b5e" stroke-miterlimit="10" stroke-width="3"/><path d="M161.52,268.17s-.78,22.3,15.26,25.04c16.04,2.74,68.52,0,68.52,0,0,0,3.87-32.09,34.39-21.52,3.28-4.05,6.42-7.22,11.58-7.96s10.58.54,14.86,3.51c-17.56-16.08-41.01-25.14-64.74-23.19-23.56,17.11-50.75,24.11-79.87,24.11Z" fill="#2c3b5e" stroke="#2c3b5e" stroke-miterlimit="10" stroke-width="3"/><path d="M316.38,410.22h35.06l-18.48-16.18-26.83-126.79s-7.13-4.42-15.22-7.03" fill="none" stroke="#2c3b5e" stroke-miterlimit="10" stroke-width="3"/><polyline points="278.01 267.25 304.84 394.04 323.31 410.22 281 410.22 270.83 403.96 270.83 410.22 260.91 410.22 245.31 293.22" fill="none" stroke="#2c3b5e" stroke-miterlimit="10" stroke-width="3"/><path d="M304.84,394.04s-11.83,7.96-37.27,2.48" fill="none" stroke="#2c3b5e" stroke-miterlimit="10" stroke-width="3"/><path d="M332.96,394.04s-1.61,3.38-21.57,0" fill="none" stroke="#2c3b5e" stroke-miterlimit="10" stroke-width="3"/><path d="M144.11,291.26h101.2v13.7h-101.2c-3.78,0-6.85-3.07-6.85-6.85h0c0-3.78,3.07-6.85,6.85-6.85Z" fill="none" stroke="#2c3b5e" stroke-miterlimit="10" stroke-width="3"/><line x1="155.34" y1="304.96" x2="135.31" y2="410.22" fill="none" stroke="#2c3b5e" stroke-miterlimit="10" stroke-width="3"/><line x1="216.68" y1="304.96" x2="236.71" y2="410.22" fill="none" stroke="#2c3b5e" stroke-miterlimit="10" stroke-width="3"/><path d="M161.29,168.42h-38.65c-4.31,0-7.68,3.74-7.22,8.03l7.75,72.55h35.8" fill="none" stroke="#2c3b5e" stroke-miterlimit="10" stroke-width="3"/><line x1="139.31" y1="249" x2="148.11" y2="291.26" fill="none" stroke="#2c3b5e" stroke-miterlimit="10" stroke-width="3"/><ellipse cx="319.26" cy="197.35" rx="8.22" ry="6.26" transform="translate(54.11 463) rotate(-76.78)" fill="none" stroke="#2c3b5e" stroke-miterlimit="10" stroke-width="3"/></g><g><rect x="91.91" y="112.63" width="12.52" height="35.09" fill="none" stroke="#2c3b5e" stroke-miterlimit="10" stroke-width="3"/><rect x="117.41" y="104.09" width="12.52" height="43.62" fill="none" stroke="#2c3b5e" stroke-miterlimit="10" stroke-width="3"/><rect x="142.91" y="93.07" width="12.52" height="54.65" fill="none" stroke="#2c3b5e" stroke-miterlimit="10" stroke-width="3"/><polyline points="98.17 101.67 111.12 85.24 123.67 95.41 155.43 72.33" fill="none" stroke="#2c3b5e" stroke-miterlimit="10" stroke-width="3"/><polyline points="148.11 69.78 156.83 72.33 156.83 79.17" fill="none" stroke="#2c3b5e" stroke-miterlimit="10" stroke-width="3"/></g><g><path d="M246.32,90.36c-.68,0-1.22.55-1.22,1.22s.55,1.22,1.22,1.22,1.22-.55,1.22-1.22-.55-1.22-1.22-1.22Z" fill="#2c3b5e"/><path d="M246.32,96.55c-.68,0-1.22.55-1.22,1.22s.55,1.22,1.22,1.22,1.22-.55,1.22-1.22-.55-1.22-1.22-1.22Z" fill="#2c3b5e"/><path d="M246.32,102.73c-.68,0-1.22.55-1.22,1.22s.55,1.22,1.22,1.22,1.22-.55,1.22-1.22-.55-1.22-1.22-1.22Z" fill="#2c3b5e"/><path d="M246.32,108.92c-.68,0-1.22.55-1.22,1.22s.55,1.22,1.22,1.22,1.22-.55,1.22-1.22-.55-1.22-1.22-1.22Z" fill="#2c3b5e"/><path d="M246.32,115.1c-.68,0-1.22.55-1.22,1.22s.55,1.22,1.22,1.22,1.22-.55,1.22-1.22-.55-1.22-1.22-1.22Z" fill="#2c3b5e"/><path d="M246.32,121.28c-.68,0-1.22.55-1.22,1.22s.55,1.22,1.22,1.22,1.22-.55,1.22-1.22-.55-1.22-1.22-1.22Z" fill="#2c3b5e"/><path d="M246.32,127.47c-.68,0-1.22.55-1.22,1.22s.55,1.22,1.22,1.22,1.22-.55,1.22-1.22-.55-1.22-1.22-1.22Z" fill="#2c3b5e"/><path d="M246.32,133.65c-.68,0-1.22.55-1.22,1.22s.55,1.22,1.22,1.22,1.22-.55,1.22-1.22-.55-1.22-1.22-1.22Z" fill="#2c3b5e"/><path d="M240.66,84.18c-.68,0-1.22.55-1.22,1.22s.55,1.22,1.22,1.22,1.22-.55,1.22-1.22-.55-1.22-1.22-1.22Z" fill="#2c3b5e"/><path d="M240.66,90.36c-.68,0-1.22.55-1.22,1.22s.55,1.22,1.22,1.22,1.22-.55,1.22-1.22-.55-1.22-1.22-1.22Z" fill="#2c3b5e"/><path d="M240.66,96.55c-.68,0-1.22.55-1.22,1.22s.55,1.22,1.22,1.22,1.22-.55,1.22-1.22-.55-1.22-1.22-1.22Z" fill="#2c3b5e"/><path d="M240.66,102.73c-.68,0-1.22.55-1.22,1.22s.55,1.22,1.22,1.22,1.22-.55,1.22-1.22-.55-1.22-1.22-1.22Z" fill="#2c3b5e"/><path d="M240.66,127.47c-.68,0-1.22.55-1.22,1.22s.55,1.22,1.22,1.22,1.22-.55,1.22-1.22-.55-1.22-1.22-1.22Z" fill="#2c3b5e"/><path d="M240.66,133.65c-.68,0-1.22.55-1.22,1.22s.55,1.22,1.22,1.22,1.22-.55,1.22-1.22-.55-1.22-1.22-1.22Z" fill="#2c3b5e"/><path d="M240.66,139.84c-.68,0-1.22.55-1.22,1.22s.55,1.22,1.22,1.22,1.22-.55,1.22-1.22-.55-1.22-1.22-1.22Z" fill="#2c3b5e"/><path d="M234.99,84.18c-.68,0-1.22.55-1.22,1.22s.55,1.22,1.22,1.22,1.22-.55,1.22-1.22-.55-1.22-1.22-1.22Z" fill="#2c3b5e"/><path d="M234.99,90.36c-.68,0-1.22.55-1.22,1.22s.55,1.22,1.22,1.22,1.22-.55,1.22-1.22-.55-1.22-1.22-1.22Z" fill="#2c3b5e"/><path d="M234.99,96.55c-.68,0-1.22.55-1.22,1.22s.55,1.22,1.22,1.22,1.22-.55,1.22-1.22-.55-1.22-1.22-1.22Z" fill="#2c3b5e"/><path d="M234.99,133.65c-.68,0-1.22.55-1.22,1.22s.55,1.22,1.22,1.22,1.22-.55,1.22-1.22-.55-1.22-1.22-1.22Z" fill="#2c3b5e"/><path d="M234.99,139.84c-.68,0-1.22.55-1.22,1.22s.55,1.22,1.22,1.22,1.22-.55,1.22-1.22-.55-1.22-1.22-1.22Z" fill="#2c3b5e"/><path d="M229.33,78c-.68,0-1.22.55-1.22,1.22s.55,1.22,1.22,1.22,1.22-.55,1.22-1.22-.55-1.22-1.22-1.22Z" fill="#2c3b5e"/><path d="M229.33,84.18c-.68,0-1.22.55-1.22,1.22s.55,1.22,1.22,1.22,1.22-.55,1.22-1.22-.55-1.22-1.22-1.22Z" fill="#2c3b5e"/><path d="M229.33,90.36c-.68,0-1.22.55-1.22,1.22s.55,1.22,1.22,1.22,1.22-.55,1.22-1.22-.55-1.22-1.22-1.22Z" fill="#2c3b5e"/><path d="M229.33,96.55c-.68,0-1.22.55-1.22,1.22s.55,1.22,1.22,1.22,1.22-.55,1.22-1.22-.55-1.22-1.22-1.22Z" fill="#2c3b5e"/><path d="M223.67,78c-.68,0-1.22.55-1.22,1.22s.55,1.22,1.22,1.22,1.22-.55,1.22-1.22-.55-1.22-1.22-1.22Z" fill="#2c3b5e"/><path d="M223.67,84.18c-.68,0-1.22.55-1.22,1.22s.55,1.22,1.22,1.22,1.22-.55,1.22-1.22-.55-1.22-1.22-1.22Z" fill="#2c3b5e"/><path d="M223.67,90.36c-.68,0-1.22.55-1.22,1.22s.55,1.22,1.22,1.22,1.22-.55,1.22-1.22-.55-1.22-1.22-1.22Z" fill="#2c3b5e"/><path d="M223.67,96.55c-.68,0-1.22.55-1.22,1.22s.55,1.22,1.22,1.22,1.22-.55,1.22-1.22-.55-1.22-1.22-1.22Z" fill="#2c3b5e"/><path d="M218.01,78c-.68,0-1.22.55-1.22,1.22s.55,1.22,1.22,1.22,1.22-.55,1.22-1.22-.55-1.22-1.22-1.22Z" fill="#2c3b5e"/><path d="M218.01,84.18c-.68,0-1.22.55-1.22,1.22s.55,1.22,1.22,1.22,1.22-.55,1.22-1.22-.55-1.22-1.22-1.22Z" fill="#2c3b5e"/><path d="M218.01,90.36c-.68,0-1.22.55-1.22,1.22s.55,1.22,1.22,1.22,1.22-.55,1.22-1.22-.55-1.22-1.22-1.22Z" fill="#2c3b5e"/><path d="M218.01,96.55c-.68,0-1.22.55-1.22,1.22s.55,1.22,1.22,1.22,1.22-.55,1.22-1.22-.55-1.22-1.22-1.22Z" fill="#2c3b5e"/><path d="M218.01,102.73c-.68,0-1.22.55-1.22,1.22s.55,1.22,1.22,1.22,1.22-.55,1.22-1.22-.55-1.22-1.22-1.22Z" fill="#2c3b5e"/><path d="M212.34,78c-.68,0-1.22.55-1.22,1.22s.55,1.22,1.22,1.22,1.22-.55,1.22-1.22-.55-1.22-1.22-1.22Z" fill="#2c3b5e"/><path d="M212.34,84.18c-.68,0-1.22.55-1.22,1.22s.55,1.22,1.22,1.22,1.22-.55,1.22-1.22-.55-1.22-1.22-1.22Z" fill="#2c3b5e"/><path d="M212.34,90.36c-.68,0-1.22.55-1.22,1.22s.55,1.22,1.22,1.22,1.22-.55,1.22-1.22-.55-1.22-1.22-1.22Z" fill="#2c3b5e"/><path d="M212.34,96.55c-.68,0-1.22.55-1.22,1.22s.55,1.22,1.22,1.22,1.22-.55,1.22-1.22-.55-1.22-1.22-1.22Z" fill="#2c3b5e"/><path d="M212.34,102.73c-.68,0-1.22.55-1.22,1.22s.55,1.22,1.22,1.22,1.22-.55,1.22-1.22-.55-1.22-1.22-1.22Z" fill="#2c3b5e"/><path d="M212.34,108.92c-.68,0-1.22.55-1.22,1.22s.55,1.22,1.22,1.22,1.22-.55,1.22-1.22-.55-1.22-1.22-1.22Z" fill="#2c3b5e"/><path d="M206.68,78c-.68,0-1.22.55-1.22,1.22s.55,1.22,1.22,1.22,1.22-.55,1.22-1.22-.55-1.22-1.22-1.22Z" fill="#2c3b5e"/><path d="M206.68,84.18c-.68,0-1.22.55-1.22,1.22s.55,1.22,1.22,1.22,1.22-.55,1.22-1.22-.55-1.22-1.22-1.22Z" fill="#2c3b5e"/><path d="M206.68,90.36c-.68,0-1.22.55-1.22,1.22s.55,1.22,1.22,1.22,1.22-.55,1.22-1.22-.55-1.22-1.22-1.22Z" fill="#2c3b5e"/><path d="M206.68,96.55c-.68,0-1.22.55-1.22,1.22s.55,1.22,1.22,1.22,1.22-.55,1.22-1.22-.55-1.22-1.22-1.22Z" fill="#2c3b5e"/><path d="M206.68,102.73c-.68,0-1.22.55-1.22,1.22s.55,1.22,1.22,1.22,1.22-.55,1.22-1.22-.55-1.22-1.22-1.22Z" fill="#2c3b5e"/><path d="M206.68,108.92c-.68,0-1.22.55-1.22,1.22s.55,1.22,1.22,1.22,1.22-.55,1.22-1.22-.55-1.22-1.22-1.22Z" fill="#2c3b5e"/><path d="M201.02,84.18c-.68,0-1.22.55-1.22,1.22s.55,1.22,1.22,1.22,1.22-.55,1.22-1.22-.55-1.22-1.22-1.22Z" fill="#2c3b5e"/><path d="M201.02,90.36c-.68,0-1.22.55-1.22,1.22s.55,1.22,1.22,1.22,1.22-.55,1.22-1.22-.55-1.22-1.22-1.22Z" fill="#2c3b5e"/><path d="M201.02,96.55c-.68,0-1.22.55-1.22,1.22s.55,1.22,1.22,1.22,1.22-.55,1.22-1.22-.55-1.22-1.22-1.22Z" fill="#2c3b5e"/><path d="M201.02,102.73c-.68,0-1.22.55-1.22,1.22s.55,1.22,1.22,1.22,1.22-.55,1.22-1.22-.55-1.22-1.22-1.22Z" fill="#2c3b5e"/><path d="M201.02,108.92c-.68,0-1.22.55-1.22,1.22s.55,1.22,1.22,1.22,1.22-.55,1.22-1.22-.55-1.22-1.22-1.22Z" fill="#2c3b5e"/><path d="M195.36,84.18c-.68,0-1.22.55-1.22,1.22s.55,1.22,1.22,1.22,1.22-.55,1.22-1.22-.55-1.22-1.22-1.22Z" fill="#2c3b5e"/><path d="M195.36,90.36c-.68,0-1.22.55-1.22,1.22s.55,1.22,1.22,1.22,1.22-.55,1.22-1.22-.55-1.22-1.22-1.22Z" fill="#2c3b5e"/><path d="M195.36,96.55c-.68,0-1.22.55-1.22,1.22s.55,1.22,1.22,1.22,1.22-.55,1.22-1.22-.55-1.22-1.22-1.22Z" fill="#2c3b5e"/><path d="M195.36,102.73c-.68,0-1.22.55-1.22,1.22s.55,1.22,1.22,1.22,1.22-.55,1.22-1.22-.55-1.22-1.22-1.22Z" fill="#2c3b5e"/><path d="M195.36,108.92c-.68,0-1.22.55-1.22,1.22s.55,1.22,1.22,1.22,1.22-.55,1.22-1.22-.55-1.22-1.22-1.22Z" fill="#2c3b5e"/><path d="M195.36,121.28c-.68,0-1.22.55-1.22,1.22s.55,1.22,1.22,1.22,1.22-.55,1.22-1.22-.55-1.22-1.22-1.22Z" fill="#2c3b5e"/><path d="M195.36,127.47c-.68,0-1.22.55-1.22,1.22s.55,1.22,1.22,1.22,1.22-.55,1.22-1.22-.55-1.22-1.22-1.22Z" fill="#2c3b5e"/><path d="M195.36,133.65c-.68,0-1.22.55-1.22,1.22s.55,1.22,1.22,1.22,1.22-.55,1.22-1.22-.55-1.22-1.22-1.22Z" fill="#2c3b5e"/><path d="M195.36,139.84c-.68,0-1.22.55-1.22,1.22s.55,1.22,1.22,1.22,1.22-.55,1.22-1.22-.55-1.22-1.22-1.22Z" fill="#2c3b5e"/><path d="M189.69,90.36c-.68,0-1.22.55-1.22,1.22s.55,1.22,1.22,1.22,1.22-.55,1.22-1.22-.55-1.22-1.22-1.22Z" fill="#2c3b5e"/><path d="M189.69,96.55c-.68,0-1.22.55-1.22,1.22s.55,1.22,1.22,1.22,1.22-.55,1.22-1.22-.55-1.22-1.22-1.22Z" fill="#2c3b5e"/><path d="M189.69,102.73c-.68,0-1.22.55-1.22,1.22s.55,1.22,1.22,1.22,1.22-.55,1.22-1.22-.55-1.22-1.22-1.22Z" fill="#2c3b5e"/><path d="M189.69,108.92c-.68,0-1.22.55-1.22,1.22s.55,1.22,1.22,1.22,1.22-.55,1.22-1.22-.55-1.22-1.22-1.22Z" fill="#2c3b5e"/><path d="M189.69,115.1c-.68,0-1.22.55-1.22,1.22s.55,1.22,1.22,1.22,1.22-.55,1.22-1.22-.55-1.22-1.22-1.22Z" fill="#2c3b5e"/><path d="M189.69,121.28c-.68,0-1.22.55-1.22,1.22s.55,1.22,1.22,1.22,1.22-.55,1.22-1.22-.55-1.22-1.22-1.22Z" fill="#2c3b5e"/><path d="M189.69,127.47c-.68,0-1.22.55-1.22,1.22s.55,1.22,1.22,1.22,1.22-.55,1.22-1.22-.55-1.22-1.22-1.22Z" fill="#2c3b5e"/><path d="M189.69,133.65c-.68,0-1.22.55-1.22,1.22s.55,1.22,1.22,1.22,1.22-.55,1.22-1.22-.55-1.22-1.22-1.22Z" fill="#2c3b5e"/><path d="M189.69,139.84c-.68,0-1.22.55-1.22,1.22s.55,1.22,1.22,1.22,1.22-.55,1.22-1.22-.55-1.22-1.22-1.22Z" fill="#2c3b5e"/><path d="M184.03,115.1c-.68,0-1.22.55-1.22,1.22s.55,1.22,1.22,1.22,1.22-.55,1.22-1.22-.55-1.22-1.22-1.22Z" fill="#2c3b5e"/><path d="M184.03,121.28c-.68,0-1.22.55-1.22,1.22s.55,1.22,1.22,1.22,1.22-.55,1.22-1.22-.55-1.22-1.22-1.22Z" fill="#2c3b5e"/><path d="M184.03,127.47c-.68,0-1.22.55-1.22,1.22s.55,1.22,1.22,1.22,1.22-.55,1.22-1.22-.55-1.22-1.22-1.22Z" fill="#2c3b5e"/><path d="M184.03,133.65c-.68,0-1.22.55-1.22,1.22s.55,1.22,1.22,1.22,1.22-.55,1.22-1.22-.55-1.22-1.22-1.22Z" fill="#2c3b5e"/><path d="M184.03,139.84c-.68,0-1.22.55-1.22,1.22s.55,1.22,1.22,1.22,1.22-.55,1.22-1.22-.55-1.22-1.22-1.22Z" fill="#2c3b5e"/><path d="M178.37,121.28c-.68,0-1.22.55-1.22,1.22s.55,1.22,1.22,1.22,1.22-.55,1.22-1.22-.55-1.22-1.22-1.22Z" fill="#2c3b5e"/><path d="M178.37,127.47c-.68,0-1.22.55-1.22,1.22s.55,1.22,1.22,1.22,1.22-.55,1.22-1.22-.55-1.22-1.22-1.22Z" fill="#2c3b5e"/><path d="M178.37,133.65c-.68,0-1.22.55-1.22,1.22s.55,1.22,1.22,1.22,1.22-.55,1.22-1.22-.55-1.22-1.22-1.22Z" fill="#2c3b5e"/><path d="M178.37,139.84c-.68,0-1.22.55-1.22,1.22s.55,1.22,1.22,1.22,1.22-.55,1.22-1.22-.55-1.22-1.22-1.22Z" fill="#2c3b5e"/></g></svg>