<svg id="Illustrations" xmlns="http://www.w3.org/2000/svg" width="480" height="480" viewBox="0 0 480 480"><g><path d="M202.46,132.55s-47.86,24.95-17.82,95.72c0,0-1.27,7.26,4.58,13.36" fill="none" stroke="#2c3b5e" stroke-miterlimit="10" stroke-width="3"/><path d="M199.91,174.55s-6.87,22.53,8.02,42.39" fill="none" stroke="#2c3b5e" stroke-miterlimit="10" stroke-width="3"/><path d="M203.13,219.87s4.04,10.95,11.93,15.53" fill="none" stroke="#2c3b5e" stroke-miterlimit="10" stroke-width="3"/><polyline points="184.37 248.63 178.28 266.58 216.21 266.58 230.01 227.63" fill="none" stroke="#2c3b5e" stroke-miterlimit="10" stroke-width="3"/><path d="M234.37,226.19l12.38,41.41h36.91s-20.87-40.09-18.33-85.66" fill="none" stroke="#2c3b5e" stroke-miterlimit="10" stroke-width="3"/><path d="M266.92,216.94s29.73-4.71,47.81-41.62" fill="none" stroke="#2c3b5e" stroke-miterlimit="10" stroke-width="3"/><path d="M251.34,132.55s18.84,15.66,23.93,54.54" fill="none" stroke="#2c3b5e" stroke-miterlimit="10" stroke-width="3"/><path d="M274.32,180.95s9.35.22,17.75-8.43c0,0-.51-5.35,2.8-9.93" fill="none" stroke="#2c3b5e" stroke-miterlimit="10" stroke-width="3"/><path d="M304.8,157.82s-2.55,10.15-8.4,15.75" fill="none" stroke="#2c3b5e" stroke-miterlimit="10" stroke-width="3"/><path d="M313.2,165.2s-2.55,10.15-8.4,15.75" fill="none" stroke="#2c3b5e" stroke-miterlimit="10" stroke-width="3"/><path d="M310.65,156.99s-3.05,13.36-10.06,20.37" fill="none" stroke="#2c3b5e" stroke-miterlimit="10" stroke-width="3"/><path d="M215.06,127.97s1.65,24.63,21.51,52.98c0,0,10.31-12.51,10.31-44.97" fill="none" stroke="#2c3b5e" stroke-miterlimit="10" stroke-width="3"/><polyline points="188.6 266.58 169.37 391.96 223.59 391.96 234.37 250.16" fill="none" stroke="#2c3b5e" stroke-miterlimit="10" stroke-width="3"/><polyline points="224.1 385.89 274.32 385.89 263.3 267.6" fill="none" stroke="#2c3b5e" stroke-miterlimit="10" stroke-width="3"/><path d="M217.03,123.54c1.12-.62,1.95-1.68,2.58-2.79,1.96-3.45,2.28-7.78.86-11.48-1.58.84-3.91.63-5.35-.42-1.44-1.05-2.21-2.96-1.89-4.72.2-1.09.79-2.11,1.66-2.8.93-.74,2.17-1.08,3.35-.93s2.29.8,3,1.75c4.25.11,8.12-2.26,10.54-5.75,2.42-3.49,3.63-7.66,4.79-11.75,1.08,3.46,4.41,6.02,7.7,7.55s6.93,2.12,10.51,2.69c1.4,6.57,2.57,13.93.57,20.34-1.33,4.24-4.14,7.99-7.83,10.46s-8.24,3.63-12.66,3.23" fill="none" stroke="#2c3b5e" stroke-miterlimit="10" stroke-width="3"/><path d="M200.95,134.13c-4.23-4.53-4.95-11.95-1.67-17.21,1.55-2.48,3.85-4.47,5.09-7.12,1.34-2.87,1.27-6.2.88-9.35s-1.09-6.29-.9-9.46c.31-5.21,3.16-10.22,7.48-13.15s10.03-3.71,14.99-2.06c10.87-19.4,41.7-3.57,37.44,14.65-.77,3.28-1.72,6.59-1.65,9.96.1,5.08,3.17,9.59,4.44,14.51,1.74,6.72-.16,14.26-4.87,19.36" fill="none" stroke="#2c3b5e" stroke-miterlimit="10" stroke-width="3"/><polyline points="240.35 101.83 242.83 111.52 237.28 113.29" fill="none" stroke="#2c3b5e" stroke-miterlimit="10" stroke-width="3"/><path d="M232.46,117.12s3.46,4.14,9.02,2.84" fill="none" stroke="#2c3b5e" stroke-miterlimit="10" stroke-width="3"/><ellipse cx="248.45" cy="103.91" rx="1.54" ry="2.08" fill="#2c3b5e"/><ellipse cx="233.99" cy="103.91" rx="1.54" ry="2.08" fill="#2c3b5e"/><path d="M254.04,135.25s4.23,25.75-2.7,43.32" fill="none" stroke="#2c3b5e" stroke-miterlimit="10" stroke-width="3"/><circle cx="250.19" cy="182.83" r="4.26" fill="none" stroke="#2c3b5e" stroke-miterlimit="10" stroke-width="3"/><path d="M207.93,131.21s-3.63,16.04,1.53,28.45" fill="none" stroke="#2c3b5e" stroke-miterlimit="10" stroke-width="3"/><path d="M207.97,179.68l-3.41-10.41c-1.25-3.81.83-7.91,4.64-9.15h0c3.81-1.25,7.91.83,9.15,4.64l3.41,10.41" fill="none" stroke="#2c3b5e" stroke-miterlimit="10" stroke-width="3"/><path d="M215.19,398.58l8.92,14.51h-28.26s-3.05-5.6-6.36-4.84c-3.31.76-4.58,4.84-4.58,4.84h-12.47l3.82-12.47" fill="none" stroke="#2c3b5e" stroke-miterlimit="10" stroke-width="3"/><path d="M277.14,398.58l8.92,14.51h-28.26s-3.05-5.6-6.36-4.84-4.58,4.84-4.58,4.84h-12.47l3.82-12.47" fill="none" stroke="#2c3b5e" stroke-miterlimit="10" stroke-width="3"/><path d="M190.24,225.21s.27,10.56,8.09,16.42" fill="none" stroke="#2c3b5e" stroke-miterlimit="10" stroke-width="3"/><path d="M198.33,222.8s.18,7.76,8.2,16.8" fill="none" stroke="#2c3b5e" stroke-miterlimit="10" stroke-width="3"/><g><polyline points="176.24 201.07 160.2 206.38 174.2 246.09 184.37 242.73" fill="none" stroke="#2c3b5e" stroke-miterlimit="10" stroke-width="3"/><polyline points="217.16 231.88 238.86 224.7 224.86 184.99 198.33 193.77" fill="none" stroke="#2c3b5e" stroke-miterlimit="10" stroke-width="3"/><path d="M226.36,188.42c-.65.19-1.03.86-.84,1.51s.86,1.03,1.51.84,1.03-.86.84-1.51-.86-1.03-1.51-.84Z" fill="#2c3b5e"/><path d="M228.05,194.37c-.65.19-1.03.86-.84,1.51s.86,1.03,1.51.84,1.03-.86.84-1.51-.86-1.03-1.51-.84Z" fill="#2c3b5e"/><path d="M229.74,200.32c-.65.19-1.03.86-.84,1.51s.86,1.03,1.51.84,1.03-.86.84-1.51-.86-1.03-1.51-.84Z" fill="#2c3b5e"/><path d="M231.43,206.27c-.65.19-1.03.86-.84,1.51s.86,1.03,1.51.84,1.03-.86.84-1.51-.86-1.03-1.51-.84Z" fill="#2c3b5e"/><path d="M233.12,212.21c-.65.19-1.03.86-.84,1.51s.86,1.03,1.51.84,1.03-.86.84-1.51-.86-1.03-1.51-.84Z" fill="#2c3b5e"/><path d="M234.82,218.16c-.65.19-1.03.86-.84,1.51s.86,1.03,1.51.84,1.03-.86.84-1.51-.86-1.03-1.51-.84Z" fill="#2c3b5e"/><path d="M236.51,224.11c-.65.19-1.03.86-.84,1.51s.86,1.03,1.51.84,1.03-.86.84-1.51-.86-1.03-1.51-.84Z" fill="#2c3b5e"/><path d="M220.91,189.97c-.65.19-1.03.86-.84,1.51s.86,1.03,1.51.84,1.03-.86.84-1.51-.86-1.03-1.51-.84Z" fill="#2c3b5e"/><path d="M222.6,195.92c-.65.19-1.03.86-.84,1.51s.86,1.03,1.51.84,1.03-.86.84-1.51-.86-1.03-1.51-.84Z" fill="#2c3b5e"/><path d="M224.29,201.87c-.65.19-1.03.86-.84,1.51s.86,1.03,1.51.84,1.03-.86.84-1.51-.86-1.03-1.51-.84Z" fill="#2c3b5e"/><path d="M225.99,207.82c-.65.19-1.03.86-.84,1.51s.86,1.03,1.51.84,1.03-.86.84-1.51-.86-1.03-1.51-.84Z" fill="#2c3b5e"/><path d="M227.68,213.76c-.65.19-1.03.86-.84,1.51s.86,1.03,1.51.84,1.03-.86.84-1.51-.86-1.03-1.51-.84Z" fill="#2c3b5e"/><path d="M229.37,219.71c-.65.19-1.03.86-.84,1.51s.86,1.03,1.51.84,1.03-.86.84-1.51-.86-1.03-1.51-.84Z" fill="#2c3b5e"/><path d="M231.06,225.66c-.65.19-1.03.86-.84,1.51s.86,1.03,1.51.84,1.03-.86.84-1.51-.86-1.03-1.51-.84Z" fill="#2c3b5e"/><path d="M215.46,191.52c-.65.19-1.03.86-.84,1.51s.86,1.03,1.51.84,1.03-.86.84-1.51-.86-1.03-1.51-.84Z" fill="#2c3b5e"/><path d="M217.16,197.47c-.65.19-1.03.86-.84,1.51s.86,1.03,1.51.84,1.03-.86.84-1.51-.86-1.03-1.51-.84Z" fill="#2c3b5e"/><path d="M218.85,203.42c-.65.19-1.03.86-.84,1.51s.86,1.03,1.51.84,1.03-.86.84-1.51-.86-1.03-1.51-.84Z" fill="#2c3b5e"/><path d="M220.54,209.37c-.65.19-1.03.86-.84,1.51s.86,1.03,1.51.84,1.03-.86.84-1.51-.86-1.03-1.51-.84Z" fill="#2c3b5e"/><path d="M222.23,215.31c-.65.19-1.03.86-.84,1.51s.86,1.03,1.51.84,1.03-.86.84-1.51-.86-1.03-1.51-.84Z" fill="#2c3b5e"/><path d="M223.92,221.26c-.65.19-1.03.86-.84,1.51s.86,1.03,1.51.84,1.03-.86.84-1.51-.86-1.03-1.51-.84Z" fill="#2c3b5e"/><path d="M225.62,227.21c-.65.19-1.03.86-.84,1.51s.86,1.03,1.51.84,1.03-.86.84-1.51-.86-1.03-1.51-.84Z" fill="#2c3b5e"/><path d="M210.02,193.07c-.65.19-1.03.86-.84,1.51s.86,1.03,1.51.84,1.03-.86.84-1.51-.86-1.03-1.51-.84Z" fill="#2c3b5e"/><path d="M211.71,199.02c-.65.19-1.03.86-.84,1.51s.86,1.03,1.51.84,1.03-.86.84-1.51-.86-1.03-1.51-.84Z" fill="#2c3b5e"/><path d="M213.4,204.97c-.65.19-1.03.86-.84,1.51s.86,1.03,1.51.84,1.03-.86.84-1.51-.86-1.03-1.51-.84Z" fill="#2c3b5e"/><path d="M215.09,210.92c-.65.19-1.03.86-.84,1.51s.86,1.03,1.51.84,1.03-.86.84-1.51-.86-1.03-1.51-.84Z" fill="#2c3b5e"/><path d="M216.79,216.86c-.65.19-1.03.86-.84,1.51s.86,1.03,1.51.84,1.03-.86.84-1.51-.86-1.03-1.51-.84Z" fill="#2c3b5e"/><path d="M218.48,222.81c-.65.19-1.03.86-.84,1.51s.86,1.03,1.51.84,1.03-.86.84-1.51-.86-1.03-1.51-.84Z" fill="#2c3b5e"/><path d="M220.17,228.76c-.65.19-1.03.86-.84,1.51s.86,1.03,1.51.84,1.03-.86.84-1.51-.86-1.03-1.51-.84Z" fill="#2c3b5e"/><path d="M204.57,194.62c-.65.19-1.03.86-.84,1.51s.86,1.03,1.51.84,1.03-.86.84-1.51-.86-1.03-1.51-.84Z" fill="#2c3b5e"/><path d="M206.26,200.57c-.65.19-1.03.86-.84,1.51s.86,1.03,1.51.84,1.03-.86.84-1.51-.86-1.03-1.51-.84Z" fill="#2c3b5e"/><path d="M207.95,206.52c-.65.19-1.03.86-.84,1.51s.86,1.03,1.51.84,1.03-.86.84-1.51-.86-1.03-1.51-.84Z" fill="#2c3b5e"/><path d="M209.65,212.46c-.65.19-1.03.86-.84,1.51s.86,1.03,1.51.84,1.03-.86.84-1.51-.86-1.03-1.51-.84Z" fill="#2c3b5e"/><path d="M211.34,218.41c-.65.19-1.03.86-.84,1.51s.86,1.03,1.51.84,1.03-.86.84-1.51-.86-1.03-1.51-.84Z" fill="#2c3b5e"/><path d="M213.03,224.36c-.65.19-1.03.86-.84,1.51s.86,1.03,1.51.84,1.03-.86.84-1.51-.86-1.03-1.51-.84Z" fill="#2c3b5e"/><path d="M214.72,230.31c-.65.19-1.03.86-.84,1.51s.86,1.03,1.51.84,1.03-.86.84-1.51-.86-1.03-1.51-.84Z" fill="#2c3b5e"/><path d="M184.11,226.16c-.65.19-1.03.86-.84,1.51s.86,1.03,1.51.84,1.03-.86.84-1.51-.86-1.03-1.51-.84Z" fill="#2c3b5e"/><path d="M171.89,203.92c-.65.19-1.03.86-.84,1.51s.86,1.03,1.51.84,1.03-.86.84-1.51-.86-1.03-1.51-.84Z" fill="#2c3b5e"/><path d="M173.58,209.87c-.65.19-1.03.86-.84,1.51s.86,1.03,1.51.84,1.03-.86.84-1.51-.86-1.03-1.51-.84Z" fill="#2c3b5e"/><path d="M175.28,215.81c-.65.19-1.03.86-.84,1.51s.86,1.03,1.51.84,1.03-.86.84-1.51-.86-1.03-1.51-.84Z" fill="#2c3b5e"/><path d="M176.97,221.76c-.65.19-1.03.86-.84,1.51s.86,1.03,1.51.84,1.03-.86.84-1.51-.86-1.03-1.51-.84Z" fill="#2c3b5e"/><path d="M178.66,227.71c-.65.19-1.03.86-.84,1.51s.86,1.03,1.51.84,1.03-.86.84-1.51-.86-1.03-1.51-.84Z" fill="#2c3b5e"/><path d="M180.35,233.66c-.65.19-1.03.86-.84,1.51s.86,1.03,1.51.84,1.03-.86.84-1.51-.86-1.03-1.51-.84Z" fill="#2c3b5e"/><path d="M182.04,239.61c-.65.19-1.03.86-.84,1.51s.86,1.03,1.51.84,1.03-.86.84-1.51-.86-1.03-1.51-.84Z" fill="#2c3b5e"/><path d="M166.45,205.47c-.65.19-1.03.86-.84,1.51s.86,1.03,1.51.84,1.03-.86.84-1.51-.86-1.03-1.51-.84Z" fill="#2c3b5e"/><path d="M168.14,211.42c-.65.19-1.03.86-.84,1.51s.86,1.03,1.51.84,1.03-.86.84-1.51-.86-1.03-1.51-.84Z" fill="#2c3b5e"/><path d="M169.83,217.36c-.65.19-1.03.86-.84,1.51s.86,1.03,1.51.84,1.03-.86.84-1.51-.86-1.03-1.51-.84Z" fill="#2c3b5e"/><path d="M171.52,223.31c-.65.19-1.03.86-.84,1.51s.86,1.03,1.51.84,1.03-.86.84-1.51-.86-1.03-1.51-.84Z" fill="#2c3b5e"/><path d="M173.21,229.26c-.65.19-1.03.86-.84,1.51s.86,1.03,1.51.84,1.03-.86.84-1.51-.86-1.03-1.51-.84Z" fill="#2c3b5e"/><path d="M174.91,235.21c-.65.19-1.03.86-.84,1.51s.86,1.03,1.51.84,1.03-.86.84-1.51-.86-1.03-1.51-.84Z" fill="#2c3b5e"/><path d="M176.6,241.15c-.65.19-1.03.86-.84,1.51s.86,1.03,1.51.84,1.03-.86.84-1.51-.86-1.03-1.51-.84Z" fill="#2c3b5e"/></g></g><g><path d="M320.41,413.09h-14.26s-28-83.63,4.2-100.81c32.2-17.18,10.06,100.81,10.06,100.81Z" fill="#2c3b5e" stroke="#2c3b5e" stroke-miterlimit="10" stroke-width="3"/><path d="M324.49,387.8s9.67-29.06,24.57-21.3c15.91,8.3-17.57,46.59-17.57,46.59h-11.07" fill="none" stroke="#2c3b5e" stroke-miterlimit="10" stroke-width="3"/></g><polygon points="324.68 107.64 312.26 107.64 312.26 95.23 300.45 95.23 300.45 107.64 288.03 107.64 288.03 119.46 300.45 119.46 300.45 131.87 312.26 131.87 312.26 119.46 324.68 119.46 324.68 107.64" fill="#2c3b5e" stroke="#2c3b5e" stroke-miterlimit="10" stroke-width="3"/><path d="M176.68,109.55c0-11.39-11.2-20.62-25.01-20.62s-25.01,9.23-25.01,20.62,11.2,20.62,25.01,20.62c3.39,0,6.63-.56,9.58-1.57l9.71,7.77-1.4-12.41c4.41-3.72,7.12-8.8,7.12-14.41Z" fill="none" stroke="#2c3b5e" stroke-miterlimit="10" stroke-width="3"/><circle cx="139.76" cy="109.11" r="2.51" fill="#2c3b5e"/><circle cx="151.3" cy="109.11" r="2.51" fill="#2c3b5e"/><circle cx="162.85" cy="109.11" r="2.51" fill="#2c3b5e"/></svg>