<svg id="Illustrations" xmlns="http://www.w3.org/2000/svg" width="480" height="480" viewBox="0 0 480 480"><g><polygon points="152.89 111.9 124.47 136.35 137.37 171.07 165.27 145.95 152.89 111.9" fill="none" stroke="#2c3b5e" stroke-miterlimit="10" stroke-width="3"/><circle cx="144.79" cy="141.29" r="5.04" fill="none" stroke="#2c3b5e" stroke-miterlimit="10" stroke-width="3"/><path d="M140.47,138.68c1.44-2.39,4.54-3.16,6.92-1.72,1.88,1.13,2.74,3.29,2.32,5.33l15.56,3.66-12.39-34.05-28.42,24.45,15.47,3.64c.12-.45.28-.89.53-1.31Z" fill="#2c3b5e"/></g><line x1="343.98" y1="406.35" x2="103.35" y2="406.35" fill="none" stroke="#2c3b5e" stroke-miterlimit="10" stroke-width="3"/><g><path d="M252.39,237.83l6.26,144h-13.04s2.09,10.96,13.04,14.09c10.96,3.13,12,10.43,12,10.43h-38.09" fill="none" stroke="#2c3b5e" stroke-miterlimit="10" stroke-width="3"/><path d="M215.69,237.83l6.26,144h-13.04s2.09,10.96,13.04,14.09c10.96,3.13,12,10.43,12,10.43h-34.09l-10.26-8.78-5.13,8.78h-13.65l13.2-205.35" fill="none" stroke="#2c3b5e" stroke-miterlimit="10" stroke-width="3"/><line x1="221.95" y1="381.83" x2="191.35" y2="381.83" fill="none" stroke="#2c3b5e" stroke-miterlimit="10" stroke-width="3"/><line x1="258.65" y1="381.83" x2="232.57" y2="381.83" fill="none" stroke="#2c3b5e" stroke-miterlimit="10" stroke-width="3"/><path d="M196.07,147.04c-9.65,6.63-16.27,17.55-17.53,29.19-1.26,11.64,2.9,23.79,11.14,32.1,8.25,8.31,20.43,12.58,32.05,11.08,6.14-.8,11.99-3.09,17.56-5.8,10.31-5.02,17.38-15.02,28.7-20.45,0,0,5.48-.58,9.78-4.89" fill="none" stroke="#2c3b5e" stroke-miterlimit="10" stroke-width="3"/><path d="M202.13,166.2c-.95,10.66,7.14,21.38,17.66,23.38,5.99,1.14,12.25-.29,17.76-2.9,5.52-2.6,10.42-6.33,15.27-10.02,1.5-4.28,2.05-11.48,8.94-15.83" fill="none" stroke="#2c3b5e" stroke-miterlimit="10" stroke-width="3"/><polyline points="260.95 170.52 264.39 129.3 300.39 142.35 331.7 132.17 323.61 200.26 293.55 214.96 262.65 196.2" fill="none" stroke="#2c3b5e" stroke-miterlimit="10" stroke-width="3"/><line x1="300.39" y1="142.35" x2="293.55" y2="214.96" fill="none" stroke="#2c3b5e" stroke-miterlimit="10" stroke-width="3"/><path d="M260.17,170.46s9.17-.2,16.61-5.09" fill="none" stroke="#2c3b5e" stroke-miterlimit="10" stroke-width="3"/><path d="M259.17,177.94s11.87-1.55,19.3-6.44" fill="none" stroke="#2c3b5e" stroke-miterlimit="10" stroke-width="3"/><path d="M261.85,185.74s9.59-1.72,17.02-6.61" fill="none" stroke="#2c3b5e" stroke-miterlimit="10" stroke-width="3"/><path d="M181.15,195.15s15.28,1.28,26.57-12.72" fill="none" stroke="#2c3b5e" stroke-miterlimit="10" stroke-width="3"/><path d="M240.42,111.96c3.15,7.44,5.44,15.55,4.27,23.54-1.17,7.99-6.5,15.77-14.3,17.85-4.53,1.2-9.56.35-13.44-2.28-3.88-2.63-6.53-6.99-7.09-11.64-3.4.24-8.02-.15-10.45-2.55-1.53-1.5-2.17-3.85-1.62-5.92.55-2.07,2.26-3.79,4.33-4.34" fill="none" stroke="#2c3b5e" stroke-miterlimit="10" stroke-width="3"/><path d="M228.23,115.35c.07,3.79,1.59,7.53,4.18,10.3.76.82,1.61,1.56,2.27,2.46s1.09,2.04.88,3.14c-.28,1.43-1.63,2.46-3.04,2.81-1.42.35-2.9.15-4.35-.04" fill="none" stroke="#2c3b5e" stroke-miterlimit="10" stroke-width="3"/><path d="M223.66,141.23c2.87,1.6,6.66,1.38,9.31-.55" fill="none" stroke="#2c3b5e" stroke-miterlimit="10" stroke-width="3"/><path d="M236.52,94.47s-13.37-9.87-27.39-3.78c-21.91,9.52-9.54,36.26-9.54,36.26,0,0,13.72-23.35,40.45-18.39,0,0,16.7-17.09,4.96-16.83-11.74.26-31.32,21.69-31.32,21.69" fill="none" stroke="#2c3b5e" stroke-miterlimit="10" stroke-width="3"/><path d="M220.09,88.75s-17.55,6.19-6.41,24.69" fill="none" stroke="#2c3b5e" stroke-miterlimit="10" stroke-width="3"/><path d="M200.55,125.5s4.96,7.65,9.42,7.42c4.46-.23-2.26-15.31-2.26-15.31,0,0-7.72,7.09-7.16,7.89Z" fill="#2c3b5e" stroke="#2c3b5e" stroke-miterlimit="10" stroke-width="3"/><circle cx="221.29" cy="122.65" r="1.7" fill="#2c3b5e"/><circle cx="236.22" cy="119.3" r="1.7" fill="#2c3b5e"/><path d="M241.95,143.63s13.61-.02,20.11,13.56" fill="none" stroke="#2c3b5e" stroke-miterlimit="10" stroke-width="3"/><polyline points="253.96 202.35 261.26 237.83 181.46 237.83" fill="none" stroke="#2c3b5e" stroke-miterlimit="10" stroke-width="3"/><path d="M333,154.48s-6.78,6.13-19.57,5.48" fill="none" stroke="#2c3b5e" stroke-miterlimit="10" stroke-width="3"/><path d="M332.35,161.38s-5.61,5.22-18.39,4.57" fill="none" stroke="#2c3b5e" stroke-miterlimit="10" stroke-width="3"/><path d="M331.7,168.7c-2.53,1.24-11.27,4.35-17.74,4.02" fill="none" stroke="#2c3b5e" stroke-miterlimit="10" stroke-width="3"/><path d="M326.28,177.78c-2.42.63-5.59,1.02-9.68.82" fill="none" stroke="#2c3b5e" stroke-miterlimit="10" stroke-width="3"/><g><path d="M257.64,150.56c-.68,0-1.22.55-1.22,1.22s.55,1.22,1.22,1.22,1.22-.55,1.22-1.22-.55-1.22-1.22-1.22Z" fill="#2c3b5e"/><path d="M257.64,156.74c-.68,0-1.22.55-1.22,1.22s.55,1.22,1.22,1.22,1.22-.55,1.22-1.22-.55-1.22-1.22-1.22Z" fill="#2c3b5e"/><path d="M257.64,162.92c-.68,0-1.22.55-1.22,1.22s.55,1.22,1.22,1.22,1.22-.55,1.22-1.22-.55-1.22-1.22-1.22Z" fill="#2c3b5e"/><path d="M257.64,218.58c-.68,0-1.22.55-1.22,1.22s.55,1.22,1.22,1.22,1.22-.55,1.22-1.22-.55-1.22-1.22-1.22Z" fill="#2c3b5e"/><path d="M257.64,224.76c-.68,0-1.22.55-1.22,1.22s.55,1.22,1.22,1.22,1.22-.55,1.22-1.22-.55-1.22-1.22-1.22Z" fill="#2c3b5e"/><path d="M257.64,230.95c-.68,0-1.22.55-1.22,1.22s.55,1.22,1.22,1.22,1.22-.55,1.22-1.22-.55-1.22-1.22-1.22Z" fill="#2c3b5e"/><path d="M251.98,150.56c-.68,0-1.22.55-1.22,1.22s.55,1.22,1.22,1.22,1.22-.55,1.22-1.22-.55-1.22-1.22-1.22Z" fill="#2c3b5e"/><path d="M251.98,156.74c-.68,0-1.22.55-1.22,1.22s.55,1.22,1.22,1.22,1.22-.55,1.22-1.22-.55-1.22-1.22-1.22Z" fill="#2c3b5e"/><path d="M251.98,162.92c-.68,0-1.22.55-1.22,1.22s.55,1.22,1.22,1.22,1.22-.55,1.22-1.22-.55-1.22-1.22-1.22Z" fill="#2c3b5e"/><path d="M251.98,169.11c-.68,0-1.22.55-1.22,1.22s.55,1.22,1.22,1.22,1.22-.55,1.22-1.22-.55-1.22-1.22-1.22Z" fill="#2c3b5e"/><path d="M251.98,175.29c-.68,0-1.22.55-1.22,1.22s.55,1.22,1.22,1.22,1.22-.55,1.22-1.22-.55-1.22-1.22-1.22Z" fill="#2c3b5e"/><path d="M251.98,206.21c-.68,0-1.22.55-1.22,1.22s.55,1.22,1.22,1.22,1.22-.55,1.22-1.22-.55-1.22-1.22-1.22Z" fill="#2c3b5e"/><path d="M251.98,212.39c-.68,0-1.22.55-1.22,1.22s.55,1.22,1.22,1.22,1.22-.55,1.22-1.22-.55-1.22-1.22-1.22Z" fill="#2c3b5e"/><path d="M251.98,218.58c-.68,0-1.22.55-1.22,1.22s.55,1.22,1.22,1.22,1.22-.55,1.22-1.22-.55-1.22-1.22-1.22Z" fill="#2c3b5e"/><path d="M251.98,224.76c-.68,0-1.22.55-1.22,1.22s.55,1.22,1.22,1.22,1.22-.55,1.22-1.22-.55-1.22-1.22-1.22Z" fill="#2c3b5e"/><path d="M251.98,230.95c-.68,0-1.22.55-1.22,1.22s.55,1.22,1.22,1.22,1.22-.55,1.22-1.22-.55-1.22-1.22-1.22Z" fill="#2c3b5e"/><path d="M246.31,150.56c-.68,0-1.22.55-1.22,1.22s.55,1.22,1.22,1.22,1.22-.55,1.22-1.22-.55-1.22-1.22-1.22Z" fill="#2c3b5e"/><path d="M246.31,156.74c-.68,0-1.22.55-1.22,1.22s.55,1.22,1.22,1.22,1.22-.55,1.22-1.22-.55-1.22-1.22-1.22Z" fill="#2c3b5e"/><path d="M246.31,162.92c-.68,0-1.22.55-1.22,1.22s.55,1.22,1.22,1.22,1.22-.55,1.22-1.22-.55-1.22-1.22-1.22Z" fill="#2c3b5e"/><path d="M246.31,169.11c-.68,0-1.22.55-1.22,1.22s.55,1.22,1.22,1.22,1.22-.55,1.22-1.22-.55-1.22-1.22-1.22Z" fill="#2c3b5e"/><path d="M246.31,175.29c-.68,0-1.22.55-1.22,1.22s.55,1.22,1.22,1.22,1.22-.55,1.22-1.22-.55-1.22-1.22-1.22Z" fill="#2c3b5e"/><path d="M246.31,212.39c-.68,0-1.22.55-1.22,1.22s.55,1.22,1.22,1.22,1.22-.55,1.22-1.22-.55-1.22-1.22-1.22Z" fill="#2c3b5e"/><path d="M246.31,218.58c-.68,0-1.22.55-1.22,1.22s.55,1.22,1.22,1.22,1.22-.55,1.22-1.22-.55-1.22-1.22-1.22Z" fill="#2c3b5e"/><path d="M246.31,224.76c-.68,0-1.22.55-1.22,1.22s.55,1.22,1.22,1.22,1.22-.55,1.22-1.22-.55-1.22-1.22-1.22Z" fill="#2c3b5e"/><path d="M246.31,230.95c-.68,0-1.22.55-1.22,1.22s.55,1.22,1.22,1.22,1.22-.55,1.22-1.22-.55-1.22-1.22-1.22Z" fill="#2c3b5e"/><path d="M246.31,144.42c-.68,0-1.22.55-1.22,1.22s.55,1.22,1.22,1.22,1.22-.55,1.22-1.22-.55-1.22-1.22-1.22Z" fill="#2c3b5e"/><path d="M240.65,150.56c-.68,0-1.22.55-1.22,1.22s.55,1.22,1.22,1.22,1.22-.55,1.22-1.22-.55-1.22-1.22-1.22Z" fill="#2c3b5e"/><path d="M240.65,156.74c-.68,0-1.22.55-1.22,1.22s.55,1.22,1.22,1.22,1.22-.55,1.22-1.22-.55-1.22-1.22-1.22Z" fill="#2c3b5e"/><path d="M240.65,162.92c-.68,0-1.22.55-1.22,1.22s.55,1.22,1.22,1.22,1.22-.55,1.22-1.22-.55-1.22-1.22-1.22Z" fill="#2c3b5e"/><path d="M240.65,169.11c-.68,0-1.22.55-1.22,1.22s.55,1.22,1.22,1.22,1.22-.55,1.22-1.22-.55-1.22-1.22-1.22Z" fill="#2c3b5e"/><path d="M240.65,175.29c-.68,0-1.22.55-1.22,1.22s.55,1.22,1.22,1.22,1.22-.55,1.22-1.22-.55-1.22-1.22-1.22Z" fill="#2c3b5e"/><path d="M240.65,181.48c-.68,0-1.22.55-1.22,1.22s.55,1.22,1.22,1.22,1.22-.55,1.22-1.22-.55-1.22-1.22-1.22Z" fill="#2c3b5e"/><path d="M240.65,212.39c-.68,0-1.22.55-1.22,1.22s.55,1.22,1.22,1.22,1.22-.55,1.22-1.22-.55-1.22-1.22-1.22Z" fill="#2c3b5e"/><path d="M240.65,218.58c-.68,0-1.22.55-1.22,1.22s.55,1.22,1.22,1.22,1.22-.55,1.22-1.22-.55-1.22-1.22-1.22Z" fill="#2c3b5e"/><path d="M240.65,224.76c-.68,0-1.22.55-1.22,1.22s.55,1.22,1.22,1.22,1.22-.55,1.22-1.22-.55-1.22-1.22-1.22Z" fill="#2c3b5e"/><path d="M240.65,230.95c-.68,0-1.22.55-1.22,1.22s.55,1.22,1.22,1.22,1.22-.55,1.22-1.22-.55-1.22-1.22-1.22Z" fill="#2c3b5e"/><path d="M234.99,150.56c-.68,0-1.22.55-1.22,1.22s.55,1.22,1.22,1.22,1.22-.55,1.22-1.22-.55-1.22-1.22-1.22Z" fill="#2c3b5e"/><path d="M234.99,156.74c-.68,0-1.22.55-1.22,1.22s.55,1.22,1.22,1.22,1.22-.55,1.22-1.22-.55-1.22-1.22-1.22Z" fill="#2c3b5e"/><path d="M234.99,162.92c-.68,0-1.22.55-1.22,1.22s.55,1.22,1.22,1.22,1.22-.55,1.22-1.22-.55-1.22-1.22-1.22Z" fill="#2c3b5e"/><path d="M234.99,169.11c-.68,0-1.22.55-1.22,1.22s.55,1.22,1.22,1.22,1.22-.55,1.22-1.22-.55-1.22-1.22-1.22Z" fill="#2c3b5e"/><path d="M234.99,175.29c-.68,0-1.22.55-1.22,1.22s.55,1.22,1.22,1.22,1.22-.55,1.22-1.22-.55-1.22-1.22-1.22Z" fill="#2c3b5e"/><path d="M234.99,181.48c-.68,0-1.22.55-1.22,1.22s.55,1.22,1.22,1.22,1.22-.55,1.22-1.22-.55-1.22-1.22-1.22Z" fill="#2c3b5e"/><path d="M234.99,218.58c-.68,0-1.22.55-1.22,1.22s.55,1.22,1.22,1.22,1.22-.55,1.22-1.22-.55-1.22-1.22-1.22Z" fill="#2c3b5e"/><path d="M234.99,224.76c-.68,0-1.22.55-1.22,1.22s.55,1.22,1.22,1.22,1.22-.55,1.22-1.22-.55-1.22-1.22-1.22Z" fill="#2c3b5e"/><path d="M234.99,230.95c-.68,0-1.22.55-1.22,1.22s.55,1.22,1.22,1.22,1.22-.55,1.22-1.22-.55-1.22-1.22-1.22Z" fill="#2c3b5e"/><path d="M229.33,156.74c-.68,0-1.22.55-1.22,1.22s.55,1.22,1.22,1.22,1.22-.55,1.22-1.22-.55-1.22-1.22-1.22Z" fill="#2c3b5e"/><path d="M229.33,162.92c-.68,0-1.22.55-1.22,1.22s.55,1.22,1.22,1.22,1.22-.55,1.22-1.22-.55-1.22-1.22-1.22Z" fill="#2c3b5e"/><path d="M229.33,169.11c-.68,0-1.22.55-1.22,1.22s.55,1.22,1.22,1.22,1.22-.55,1.22-1.22-.55-1.22-1.22-1.22Z" fill="#2c3b5e"/><path d="M229.33,175.29c-.68,0-1.22.55-1.22,1.22s.55,1.22,1.22,1.22,1.22-.55,1.22-1.22-.55-1.22-1.22-1.22Z" fill="#2c3b5e"/><path d="M229.33,181.48c-.68,0-1.22.55-1.22,1.22s.55,1.22,1.22,1.22,1.22-.55,1.22-1.22-.55-1.22-1.22-1.22Z" fill="#2c3b5e"/><path d="M229.33,186.66c-.68,0-1.22.55-1.22,1.22s.55,1.22,1.22,1.22,1.22-.55,1.22-1.22-.55-1.22-1.22-1.22Z" fill="#2c3b5e"/><path d="M229.33,218.58c-.68,0-1.22.55-1.22,1.22s.55,1.22,1.22,1.22,1.22-.55,1.22-1.22-.55-1.22-1.22-1.22Z" fill="#2c3b5e"/><path d="M229.33,224.76c-.68,0-1.22.55-1.22,1.22s.55,1.22,1.22,1.22,1.22-.55,1.22-1.22-.55-1.22-1.22-1.22Z" fill="#2c3b5e"/><path d="M229.33,230.95c-.68,0-1.22.55-1.22,1.22s.55,1.22,1.22,1.22,1.22-.55,1.22-1.22-.55-1.22-1.22-1.22Z" fill="#2c3b5e"/><path d="M223.66,156.74c-.68,0-1.22.55-1.22,1.22s.55,1.22,1.22,1.22,1.22-.55,1.22-1.22-.55-1.22-1.22-1.22Z" fill="#2c3b5e"/><path d="M223.66,162.92c-.68,0-1.22.55-1.22,1.22s.55,1.22,1.22,1.22,1.22-.55,1.22-1.22-.55-1.22-1.22-1.22Z" fill="#2c3b5e"/><path d="M223.66,169.11c-.68,0-1.22.55-1.22,1.22s.55,1.22,1.22,1.22,1.22-.55,1.22-1.22-.55-1.22-1.22-1.22Z" fill="#2c3b5e"/><path d="M223.66,175.29c-.68,0-1.22.55-1.22,1.22s.55,1.22,1.22,1.22,1.22-.55,1.22-1.22-.55-1.22-1.22-1.22Z" fill="#2c3b5e"/><path d="M223.66,181.48c-.68,0-1.22.55-1.22,1.22s.55,1.22,1.22,1.22,1.22-.55,1.22-1.22-.55-1.22-1.22-1.22Z" fill="#2c3b5e"/><path d="M223.66,187.66c-.68,0-1.22.55-1.22,1.22s.55,1.22,1.22,1.22,1.22-.55,1.22-1.22-.55-1.22-1.22-1.22Z" fill="#2c3b5e"/><path d="M218,186.66c-.68,0-1.22.55-1.22,1.22s.55,1.22,1.22,1.22,1.22-.55,1.22-1.22-.55-1.22-1.22-1.22Z" fill="#2c3b5e"/><path d="M223.66,218.58c-.68,0-1.22.55-1.22,1.22s.55,1.22,1.22,1.22,1.22-.55,1.22-1.22-.55-1.22-1.22-1.22Z" fill="#2c3b5e"/><path d="M223.66,224.76c-.68,0-1.22.55-1.22,1.22s.55,1.22,1.22,1.22,1.22-.55,1.22-1.22-.55-1.22-1.22-1.22Z" fill="#2c3b5e"/><path d="M223.66,230.95c-.68,0-1.22.55-1.22,1.22s.55,1.22,1.22,1.22,1.22-.55,1.22-1.22-.55-1.22-1.22-1.22Z" fill="#2c3b5e"/><path d="M218,150.56c-.68,0-1.22.55-1.22,1.22s.55,1.22,1.22,1.22,1.22-.55,1.22-1.22-.55-1.22-1.22-1.22Z" fill="#2c3b5e"/><path d="M218,156.74c-.68,0-1.22.55-1.22,1.22s.55,1.22,1.22,1.22,1.22-.55,1.22-1.22-.55-1.22-1.22-1.22Z" fill="#2c3b5e"/><path d="M218,162.92c-.68,0-1.22.55-1.22,1.22s.55,1.22,1.22,1.22,1.22-.55,1.22-1.22-.55-1.22-1.22-1.22Z" fill="#2c3b5e"/><path d="M218,169.11c-.68,0-1.22.55-1.22,1.22s.55,1.22,1.22,1.22,1.22-.55,1.22-1.22-.55-1.22-1.22-1.22Z" fill="#2c3b5e"/><path d="M218,175.29c-.68,0-1.22.55-1.22,1.22s.55,1.22,1.22,1.22,1.22-.55,1.22-1.22-.55-1.22-1.22-1.22Z" fill="#2c3b5e"/><path d="M218,181.48c-.68,0-1.22.55-1.22,1.22s.55,1.22,1.22,1.22,1.22-.55,1.22-1.22-.55-1.22-1.22-1.22Z" fill="#2c3b5e"/><path d="M218,218.58c-.68,0-1.22.55-1.22,1.22s.55,1.22,1.22,1.22,1.22-.55,1.22-1.22-.55-1.22-1.22-1.22Z" fill="#2c3b5e"/><path d="M218,224.76c-.68,0-1.22.55-1.22,1.22s.55,1.22,1.22,1.22,1.22-.55,1.22-1.22-.55-1.22-1.22-1.22Z" fill="#2c3b5e"/><path d="M218,230.95c-.68,0-1.22.55-1.22,1.22s.55,1.22,1.22,1.22,1.22-.55,1.22-1.22-.55-1.22-1.22-1.22Z" fill="#2c3b5e"/><path d="M212.34,150.56c-.68,0-1.22.55-1.22,1.22s.55,1.22,1.22,1.22,1.22-.55,1.22-1.22-.55-1.22-1.22-1.22Z" fill="#2c3b5e"/><path d="M212.34,156.74c-.68,0-1.22.55-1.22,1.22s.55,1.22,1.22,1.22,1.22-.55,1.22-1.22-.55-1.22-1.22-1.22Z" fill="#2c3b5e"/><path d="M212.34,162.92c-.68,0-1.22.43-1.22.97s.55.97,1.22.97,1.22-.43,1.22-.97-.55-.97-1.22-.97Z" fill="#2c3b5e"/><path d="M212.34,169.11c-.68,0-1.22.55-1.22,1.22s.55,1.22,1.22,1.22,1.22-.55,1.22-1.22-.55-1.22-1.22-1.22Z" fill="#2c3b5e"/><path d="M212.34,175.29c-.68,0-1.22.55-1.22,1.22s.55,1.22,1.22,1.22,1.22-.55,1.22-1.22-.55-1.22-1.22-1.22Z" fill="#2c3b5e"/><path d="M212.34,181.48c-.68,0-1.22.55-1.22,1.22s.55,1.22,1.22,1.22,1.22-.55,1.22-1.22-.55-1.22-1.22-1.22Z" fill="#2c3b5e"/><path d="M212.34,218.58c-.68,0-1.22.55-1.22,1.22s.55,1.22,1.22,1.22,1.22-.55,1.22-1.22-.55-1.22-1.22-1.22Z" fill="#2c3b5e"/><path d="M212.34,224.76c-.68,0-1.22.55-1.22,1.22s.55,1.22,1.22,1.22,1.22-.55,1.22-1.22-.55-1.22-1.22-1.22Z" fill="#2c3b5e"/><path d="M212.34,230.95c-.68,0-1.22.55-1.22,1.22s.55,1.22,1.22,1.22,1.22-.55,1.22-1.22-.55-1.22-1.22-1.22Z" fill="#2c3b5e"/><path d="M206.68,150.56c-.68,0-1.22.55-1.22,1.22s.55,1.22,1.22,1.22,1.22-.55,1.22-1.22-.55-1.22-1.22-1.22Z" fill="#2c3b5e"/><path d="M206.68,156.74c-.68,0-1.22.55-1.22,1.22s.55,1.22,1.22,1.22,1.22-.55,1.22-1.22-.55-1.22-1.22-1.22Z" fill="#2c3b5e"/><path d="M206.68,162.92c-.68,0-1.22.55-1.22,1.22s.55,1.22,1.22,1.22,1.22-.55,1.22-1.22-.55-1.22-1.22-1.22Z" fill="#2c3b5e"/><path d="M206.68,169.11c-.68,0-1.22.55-1.22,1.22s.55,1.22,1.22,1.22,1.22-.55,1.22-1.22-.55-1.22-1.22-1.22Z" fill="#2c3b5e"/><path d="M206.68,175.29c-.68,0-1.22.55-1.22,1.22s.55,1.22,1.22,1.22,1.22-.55,1.22-1.22-.55-1.22-1.22-1.22Z" fill="#2c3b5e"/><path d="M206.68,181.48c-.68,0-1.22.55-1.22,1.22s.55,1.22,1.22,1.22,1.22-.55,1.22-1.22-.55-1.22-1.22-1.22Z" fill="#2c3b5e"/><path d="M206.68,218.58c-.68,0-1.22.55-1.22,1.22s.55,1.22,1.22,1.22,1.22-.55,1.22-1.22-.55-1.22-1.22-1.22Z" fill="#2c3b5e"/><path d="M206.68,224.76c-.68,0-1.22.55-1.22,1.22s.55,1.22,1.22,1.22,1.22-.55,1.22-1.22-.55-1.22-1.22-1.22Z" fill="#2c3b5e"/><path d="M206.68,230.95c-.68,0-1.22.55-1.22,1.22s.55,1.22,1.22,1.22,1.22-.55,1.22-1.22-.55-1.22-1.22-1.22Z" fill="#2c3b5e"/><path d="M206.68,144.42c-.68,0-1.22.55-1.22,1.22s.55,1.22,1.22,1.22,1.22-.55,1.22-1.22-.55-1.22-1.22-1.22Z" fill="#2c3b5e"/><path d="M201.01,150.56c-.68,0-1.22.55-1.22,1.22s.55,1.22,1.22,1.22,1.22-.55,1.22-1.22-.55-1.22-1.22-1.22Z" fill="#2c3b5e"/><path d="M201.01,156.74c-.68,0-1.22.55-1.22,1.22s.55,1.22,1.22,1.22,1.22-.55,1.22-1.22-.55-1.22-1.22-1.22Z" fill="#2c3b5e"/><path d="M201.01,162.92c-.68,0-1.22.55-1.22,1.22s.55,1.22,1.22,1.22,1.22-.55,1.22-1.22-.55-1.22-1.22-1.22Z" fill="#2c3b5e"/><path d="M201.01,169.11c-.68,0-1.22.55-1.22,1.22s.55,1.22,1.22,1.22,1.22-.55,1.22-1.22-.55-1.22-1.22-1.22Z" fill="#2c3b5e"/><path d="M201.01,175.29c-.68,0-1.22.55-1.22,1.22s.55,1.22,1.22,1.22,1.22-.55,1.22-1.22-.55-1.22-1.22-1.22Z" fill="#2c3b5e"/><path d="M201.01,181.48c-.68,0-1.22.55-1.22,1.22s.55,1.22,1.22,1.22,1.22-.55,1.22-1.22-.55-1.22-1.22-1.22Z" fill="#2c3b5e"/><path d="M201.01,187.66c-.68,0-1.22.55-1.22,1.22s.55,1.22,1.22,1.22,1.22-.55,1.22-1.22-.55-1.22-1.22-1.22Z" fill="#2c3b5e"/><path d="M201.01,218.58c-.68,0-1.22.55-1.22,1.22s.55,1.22,1.22,1.22,1.22-.55,1.22-1.22-.55-1.22-1.22-1.22Z" fill="#2c3b5e"/><path d="M201.01,224.76c-.68,0-1.22.55-1.22,1.22s.55,1.22,1.22,1.22,1.22-.55,1.22-1.22-.55-1.22-1.22-1.22Z" fill="#2c3b5e"/><path d="M201.01,230.95c-.68,0-1.22.55-1.22,1.22s.55,1.22,1.22,1.22,1.22-.55,1.22-1.22-.55-1.22-1.22-1.22Z" fill="#2c3b5e"/><path d="M201.01,144.42c-.68,0-1.22.55-1.22,1.22s.55,1.22,1.22,1.22,1.22-.55,1.22-1.22-.55-1.22-1.22-1.22Z" fill="#2c3b5e"/><path d="M195.35,150.56c-.68,0-1.22.55-1.22,1.22s.55,1.22,1.22,1.22,1.22-.55,1.22-1.22-.55-1.22-1.22-1.22Z" fill="#2c3b5e"/><path d="M195.35,156.74c-.68,0-1.22.55-1.22,1.22s.55,1.22,1.22,1.22,1.22-.55,1.22-1.22-.55-1.22-1.22-1.22Z" fill="#2c3b5e"/><path d="M195.35,162.92c-.68,0-1.22.55-1.22,1.22s.55,1.22,1.22,1.22,1.22-.55,1.22-1.22-.55-1.22-1.22-1.22Z" fill="#2c3b5e"/><path d="M195.35,169.11c-.68,0-1.22.55-1.22,1.22s.55,1.22,1.22,1.22,1.22-.55,1.22-1.22-.55-1.22-1.22-1.22Z" fill="#2c3b5e"/><path d="M195.35,175.29c-.68,0-1.22.55-1.22,1.22s.55,1.22,1.22,1.22,1.22-.55,1.22-1.22-.55-1.22-1.22-1.22Z" fill="#2c3b5e"/><path d="M195.35,181.48c-.68,0-1.22.55-1.22,1.22s.55,1.22,1.22,1.22,1.22-.55,1.22-1.22-.55-1.22-1.22-1.22Z" fill="#2c3b5e"/><path d="M195.35,187.66c-.68,0-1.22.55-1.22,1.22s.55,1.22,1.22,1.22,1.22-.55,1.22-1.22-.55-1.22-1.22-1.22Z" fill="#2c3b5e"/><path d="M195.35,212.39c-.68,0-1.22.55-1.22,1.22s.55,1.22,1.22,1.22,1.22-.55,1.22-1.22-.55-1.22-1.22-1.22Z" fill="#2c3b5e"/><path d="M195.35,218.58c-.68,0-1.22.55-1.22,1.22s.55,1.22,1.22,1.22,1.22-.55,1.22-1.22-.55-1.22-1.22-1.22Z" fill="#2c3b5e"/><path d="M195.35,224.76c-.68,0-1.22.55-1.22,1.22s.55,1.22,1.22,1.22,1.22-.55,1.22-1.22-.55-1.22-1.22-1.22Z" fill="#2c3b5e"/><path d="M195.35,230.95c-.68,0-1.22.55-1.22,1.22s.55,1.22,1.22,1.22,1.22-.55,1.22-1.22-.55-1.22-1.22-1.22Z" fill="#2c3b5e"/><path d="M189.69,156.74c-.68,0-1.22.55-1.22,1.22s.55,1.22,1.22,1.22,1.22-.55,1.22-1.22-.55-1.22-1.22-1.22Z" fill="#2c3b5e"/><path d="M189.69,162.92c-.68,0-1.22.55-1.22,1.22s.55,1.22,1.22,1.22,1.22-.55,1.22-1.22-.55-1.22-1.22-1.22Z" fill="#2c3b5e"/><path d="M189.69,169.11c-.68,0-1.22.55-1.22,1.22s.55,1.22,1.22,1.22,1.22-.55,1.22-1.22-.55-1.22-1.22-1.22Z" fill="#2c3b5e"/><path d="M189.69,175.29c-.68,0-1.22.55-1.22,1.22s.55,1.22,1.22,1.22,1.22-.55,1.22-1.22-.55-1.22-1.22-1.22Z" fill="#2c3b5e"/><path d="M189.69,181.48c-.68,0-1.22.55-1.22,1.22s.55,1.22,1.22,1.22,1.22-.55,1.22-1.22-.55-1.22-1.22-1.22Z" fill="#2c3b5e"/><path d="M189.69,187.66c-.68,0-1.22.55-1.22,1.22s.55,1.22,1.22,1.22,1.22-.55,1.22-1.22-.55-1.22-1.22-1.22Z" fill="#2c3b5e"/><path d="M189.69,212.39c-.68,0-1.22.55-1.22,1.22s.55,1.22,1.22,1.22,1.22-.55,1.22-1.22-.55-1.22-1.22-1.22Z" fill="#2c3b5e"/><path d="M189.69,218.58c-.68,0-1.22.55-1.22,1.22s.55,1.22,1.22,1.22,1.22-.55,1.22-1.22-.55-1.22-1.22-1.22Z" fill="#2c3b5e"/><path d="M189.69,224.76c-.68,0-1.22.55-1.22,1.22s.55,1.22,1.22,1.22,1.22-.55,1.22-1.22-.55-1.22-1.22-1.22Z" fill="#2c3b5e"/><path d="M189.69,230.95c-.68,0-1.22.55-1.22,1.22s.55,1.22,1.22,1.22,1.22-.55,1.22-1.22-.55-1.22-1.22-1.22Z" fill="#2c3b5e"/><path d="M184.03,162.92c-.68,0-1.22.55-1.22,1.22s.55,1.22,1.22,1.22,1.22-.55,1.22-1.22-.55-1.22-1.22-1.22Z" fill="#2c3b5e"/><path d="M184.03,169.11c-.68,0-1.22.55-1.22,1.22s.55,1.22,1.22,1.22,1.22-.55,1.22-1.22-.55-1.22-1.22-1.22Z" fill="#2c3b5e"/><path d="M184.03,175.29c-.68,0-1.22.55-1.22,1.22s.55,1.22,1.22,1.22,1.22-.55,1.22-1.22-.55-1.22-1.22-1.22Z" fill="#2c3b5e"/><path d="M184.03,181.48c-.68,0-1.22.55-1.22,1.22s.55,1.22,1.22,1.22,1.22-.55,1.22-1.22-.55-1.22-1.22-1.22Z" fill="#2c3b5e"/><path d="M184.03,187.66c-.68,0-1.22.55-1.22,1.22s.55,1.22,1.22,1.22,1.22-.55,1.22-1.22-.55-1.22-1.22-1.22Z" fill="#2c3b5e"/><path d="M184.03,200.03c-.68,0-1.22.55-1.22,1.22s.55,1.22,1.22,1.22,1.22-.55,1.22-1.22-.55-1.22-1.22-1.22Z" fill="#2c3b5e"/><path d="M184.03,206.21c-.68,0-1.22.55-1.22,1.22s.55,1.22,1.22,1.22,1.22-.55,1.22-1.22-.55-1.22-1.22-1.22Z" fill="#2c3b5e"/><path d="M184.03,212.39c-.68,0-1.22.55-1.22,1.22s.55,1.22,1.22,1.22,1.22-.55,1.22-1.22-.55-1.22-1.22-1.22Z" fill="#2c3b5e"/><path d="M184.03,218.58c-.68,0-1.22.55-1.22,1.22s.55,1.22,1.22,1.22,1.22-.55,1.22-1.22-.55-1.22-1.22-1.22Z" fill="#2c3b5e"/><path d="M184.03,224.76c-.68,0-1.22.55-1.22,1.22s.55,1.22,1.22,1.22,1.22-.55,1.22-1.22-.55-1.22-1.22-1.22Z" fill="#2c3b5e"/><path d="M184.03,230.95c-.68,0-1.22.55-1.22,1.22s.55,1.22,1.22,1.22,1.22-.55,1.22-1.22-.55-1.22-1.22-1.22Z" fill="#2c3b5e"/></g></g><g><path d="M293.55,406.35s-27.59-56.35-6.72-78.26,13.57,78.26,13.57,78.26h-6.85Z" fill="#2c3b5e"/><path d="M300.39,406.35c1.57-4.17,6.39-54.26,25.89-58.96,19.5-4.7-18.06,58.96-18.06,58.96h-7.83Z" fill="#2c3b5e"/></g><path d="M137.09,406.35s-21.13-96.05,0-102.68,7.78,102.68,7.78,102.68" fill="none" stroke="#2c3b5e" stroke-miterlimit="10" stroke-width="3"/></svg>