<svg id="Illustrations" xmlns="http://www.w3.org/2000/svg" width="480" height="480" viewBox="0 0 480 480"><line x1="78" y1="393.37" x2="402" y2="393.37" fill="none" stroke="#2c3b5e" stroke-miterlimit="10" stroke-width="3"/><g><path d="M334.57,393.42c0-4.38,3.55-7.92,7.92-7.92s7.92,3.55,7.92,7.92" fill="none" stroke="#2c3b5e" stroke-miterlimit="10" stroke-width="3"/><path d="M351.12,393.42c0-8.05,6.53-14.58,14.58-14.58s14.58,6.53,14.58,14.58" fill="none" stroke="#2c3b5e" stroke-miterlimit="10" stroke-width="3"/><path d="M342.28,385.57c-.36-.99-.55-2.06-.55-3.17,0-5.19,4.2-9.39,9.39-9.39,2.59,0,4.94,1.05,6.64,2.75" fill="none" stroke="#2c3b5e" stroke-miterlimit="10" stroke-width="3"/><circle cx="366.98" cy="368.29" r="3.2" fill="none" stroke="#2c3b5e" stroke-miterlimit="10" stroke-width="2"/></g><g><path d="M205.78,116.36s-11.64,44.31,21.54,34.33" fill="none" stroke="#2c3b5e" stroke-miterlimit="10" stroke-width="3"/><path d="M219.8,119.58c-.47,3.2-2.08,6.21-4.48,8.37-1.1.99-2.41,1.87-3.01,3.23-.78,1.76.03,4.06,1.74,4.95,1.71.89,4.06.22,5.05-1.43" fill="none" stroke="#2c3b5e" stroke-miterlimit="10" stroke-width="3"/><path d="M218.57,141.95c1.59.47,3.23.95,4.87.73,1.73-.23,3.33-1.28,4.24-2.77" fill="none" stroke="#2c3b5e" stroke-miterlimit="10" stroke-width="3"/><path d="M236.71,116.8c-.38,2.54-.77,5.08-1.15,7.62-.12.78-.22,1.65.23,2.3.53.77,1.65.93,2.53.62s1.59-.97,2.29-1.59,1.47-1.24,2.38-1.42c1.29-.25,2.66.46,3.36,1.57s.81,2.53.48,3.8c-.33,1.27-1.05,2.41-1.89,3.42-1.54,1.86-3.52,3.35-5.73,4.33-.11,3.32-.23,10.65,6.66,11.3" fill="none" stroke="#2c3b5e" stroke-miterlimit="10" stroke-width="3"/><path d="M210.57,155.2c-1.94,4.77-.42,10.72,3.56,13.97,3.98,3.26,10.11,3.57,14.4.72,3.85-2.56,5.9-7.02,7.76-11.25" fill="none" stroke="#2c3b5e" stroke-miterlimit="10" stroke-width="3"/><path d="M248.48,150.91l-3.57-2.15c-19.8,39.91,11.78,66.52,12.37,66.52s1.17-9.78,1.17-9.78c-24.65-24.07-9.98-54.59-9.98-54.59Z" fill="#2c3b5e" stroke="#2c3b5e" stroke-miterlimit="10" stroke-width="3"/><path d="M244.91,148.76s29.78,11.35,37.35,73.17c1.64,13.38,1.01,25.67,7.49,37.49" fill="none" stroke="#2c3b5e" stroke-miterlimit="10" stroke-width="3"/><path d="M265.83,259.42s-8.61.08-6.78-15.05,1.83-45.91-8.09-68.09" fill="none" stroke="#2c3b5e" stroke-miterlimit="10" stroke-width="3"/><path d="M278.09,249.32s2.22,10.17,7.96,17.48" fill="none" stroke="#2c3b5e" stroke-miterlimit="10" stroke-width="3"/><path d="M271.17,251.67s1.3,9.52,7.83,18.91" fill="none" stroke="#2c3b5e" stroke-miterlimit="10" stroke-width="3"/><path d="M265.3,252.59s1.3,10.96,5.48,17.22" fill="none" stroke="#2c3b5e" stroke-miterlimit="10" stroke-width="3"/><path d="M253.44,115.36c2.37.85,3.88,4.26,4.5,6.7s.52,5,.73,7.52c.4,4.88,1.91,6.02,4.03,7.44" fill="none" stroke="#2c3b5e" stroke-miterlimit="10" stroke-width="3"/><path d="M246.16,149.34s9.75-16.75,28.79-12.77,32.35,81.71,28.17,88.23c-4.17,6.52-15.13,7.83-15.13,7.83" fill="none" stroke="#2c3b5e" stroke-miterlimit="10" stroke-width="3"/><path d="M268.04,173.26s15.25-2.48,24.26-11.73" fill="none" stroke="#2c3b5e" stroke-miterlimit="10" stroke-width="3"/><path d="M209.89,157.68s-5.43,12.21-3.28,33.34c2.15,21.13-1.56,39.33-1.56,39.33h37.82" fill="none" stroke="#2c3b5e" stroke-miterlimit="10" stroke-width="3"/><path d="M207.42,230.35l-17.8,128.54s-3.5,17.26-23.84,21.17c0,0-8.61,3.52-7.04,13.3h65.92l5.69-39.96h-18.4" fill="none" stroke="#2c3b5e" stroke-miterlimit="10" stroke-width="3"/><line x1="226.01" y1="353.41" x2="238.51" y2="279.41" fill="none" stroke="#2c3b5e" stroke-miterlimit="10" stroke-width="3"/><path d="M230.46,261.19l40.72,90.26s6.91,13.89-14.48,27.2c-6.02,3.74-2.03,10.13-.08,13.27l65.03-21.68-14.48-32.65-12.91,3.69" fill="none" stroke="#2c3b5e" stroke-miterlimit="10" stroke-width="3"/><line x1="278.09" y1="276.72" x2="303.9" y2="338.52" fill="none" stroke="#2c3b5e" stroke-miterlimit="10" stroke-width="3"/><path d="M225.01,383.29h-63.55c-1.87,2.11-3.47,5.37-2.72,10.07h65.92l1.43-10.07h-1.09Z" fill="#2c3b5e" stroke="#2c3b5e" stroke-miterlimit="10" stroke-width="3"/><path d="M219.8,113.13s-17.68,6.05-31.64,2.17c-15.66-4.35,13.4-11.95,13.4-11.95,0,0,23.4,18.83,52.17,12.57,0,0,7.17-25.79-18.28-29.04-21.83-2.78-27.86,15.16-27.86,15.16" fill="none" stroke="#2c3b5e" stroke-miterlimit="10" stroke-width="3"/><path d="M180.17,193.95c7.31.46,14.17-4.28,18.27-10.35s9.65-18.82,11.45-25.93" fill="none" stroke="#2c3b5e" stroke-miterlimit="10" stroke-width="3"/><path d="M172.4,217.23c5.45,3.08,11.9,4.35,18.1,3.56,6.21-.79,12.14-3.63,16.64-7.98" fill="none" stroke="#2c3b5e" stroke-miterlimit="10" stroke-width="3"/><path d="M181.77,194.75c2.38-2.7,2.34-7.19-.08-9.85-2.42-2.66-6.9-3.11-9.8-.99" fill="none" stroke="#2c3b5e" stroke-miterlimit="10" stroke-width="3"/><path d="M172.4,158.81v31.04h-5.23v-31.04c0-1.44,1.17-2.61,2.61-2.61h0c1.44,0,2.61,1.17,2.61,2.61Z" fill="none" stroke="#2c3b5e" stroke-miterlimit="10" stroke-width="3"/><rect x="167.17" y="213.52" width="5.23" height="11.88" fill="none" stroke="#2c3b5e" stroke-miterlimit="10" stroke-width="3"/><path d="M160.7,187.1c3.6,2.77,9.08,5.23,17,3.01" fill="none" stroke="#2c3b5e" stroke-miterlimit="10" stroke-width="3"/><path d="M159.05,195.39c4.65,2.7,10.26,3.72,15.56,2.82" fill="none" stroke="#2c3b5e" stroke-miterlimit="10" stroke-width="3"/><path d="M157.98,202.76c6.22,2.93,13.33,3.93,20.12,2.84" fill="none" stroke="#2c3b5e" stroke-miterlimit="10" stroke-width="3"/><path d="M159.73,210.73c4.62,2.23,9.94,2.98,14.99,2.11" fill="none" stroke="#2c3b5e" stroke-miterlimit="10" stroke-width="3"/><line x1="169.79" y1="225.4" x2="169.79" y2="328.17" fill="none" stroke="#2c3b5e" stroke-miterlimit="10" stroke-width="3"/><path d="M257.24,196.96s11.87,3,17.82-7.29" fill="none" stroke="#2c3b5e" stroke-miterlimit="10" stroke-width="3"/><g><g><circle cx="211.9" cy="168.18" r="1.22" fill="#2c3b5e"/><circle cx="211.9" cy="174.36" r="1.22" fill="#2c3b5e"/><circle cx="211.9" cy="180.55" r="1.22" fill="#2c3b5e"/><circle cx="211.9" cy="186.73" r="1.22" fill="#2c3b5e"/><circle cx="211.9" cy="192.92" r="1.22" fill="#2c3b5e"/><circle cx="211.9" cy="199.1" r="1.22" fill="#2c3b5e"/><circle cx="211.9" cy="205.28" r="1.22" fill="#2c3b5e"/><circle cx="211.9" cy="211.47" r="1.22" fill="#2c3b5e"/><circle cx="211.9" cy="217.65" r="1.22" fill="#2c3b5e"/><circle cx="211.9" cy="223.83" r="1.22" fill="#2c3b5e"/><circle cx="211.9" cy="230.02" r="1.22" fill="#2c3b5e"/></g><g><circle cx="217.56" cy="174.36" r="1.22" fill="#2c3b5e"/><circle cx="217.56" cy="180.55" r="1.22" fill="#2c3b5e"/><circle cx="217.56" cy="186.73" r="1.22" fill="#2c3b5e"/><circle cx="217.56" cy="192.92" r="1.22" fill="#2c3b5e"/><circle cx="217.56" cy="199.1" r="1.22" fill="#2c3b5e"/><circle cx="217.56" cy="205.28" r="1.22" fill="#2c3b5e"/><circle cx="217.56" cy="211.47" r="1.22" fill="#2c3b5e"/><circle cx="217.56" cy="217.65" r="1.22" fill="#2c3b5e"/><circle cx="217.56" cy="223.83" r="1.22" fill="#2c3b5e"/><circle cx="217.56" cy="230.02" r="1.22" fill="#2c3b5e"/></g><g><circle cx="223.23" cy="174.36" r="1.22" fill="#2c3b5e"/><circle cx="223.23" cy="180.55" r="1.22" fill="#2c3b5e"/><circle cx="223.23" cy="186.73" r="1.22" fill="#2c3b5e"/><circle cx="223.23" cy="192.92" r="1.22" fill="#2c3b5e"/><circle cx="223.23" cy="199.1" r="1.22" fill="#2c3b5e"/><circle cx="223.23" cy="205.28" r="1.22" fill="#2c3b5e"/><circle cx="223.23" cy="211.47" r="1.22" fill="#2c3b5e"/><circle cx="223.23" cy="217.65" r="1.22" fill="#2c3b5e"/><circle cx="223.23" cy="223.83" r="1.22" fill="#2c3b5e"/><circle cx="223.23" cy="230.02" r="1.22" fill="#2c3b5e"/></g><g><circle cx="228.89" cy="174.36" r="1.22" fill="#2c3b5e"/><circle cx="228.89" cy="180.55" r="1.22" fill="#2c3b5e"/><circle cx="228.89" cy="186.73" r="1.22" fill="#2c3b5e"/><circle cx="228.89" cy="192.92" r="1.22" fill="#2c3b5e"/><circle cx="228.89" cy="199.1" r="1.22" fill="#2c3b5e"/><circle cx="228.89" cy="205.28" r="1.22" fill="#2c3b5e"/><circle cx="228.89" cy="211.47" r="1.22" fill="#2c3b5e"/><circle cx="228.89" cy="217.65" r="1.22" fill="#2c3b5e"/><circle cx="228.89" cy="223.83" r="1.22" fill="#2c3b5e"/><circle cx="228.89" cy="230.02" r="1.22" fill="#2c3b5e"/></g><g><circle cx="234.55" cy="168.18" r="1.22" fill="#2c3b5e"/><circle cx="234.55" cy="174.36" r="1.22" fill="#2c3b5e"/><circle cx="234.55" cy="180.55" r="1.22" fill="#2c3b5e"/><circle cx="234.55" cy="186.73" r="1.22" fill="#2c3b5e"/><circle cx="234.55" cy="192.92" r="1.22" fill="#2c3b5e"/><circle cx="234.55" cy="199.1" r="1.22" fill="#2c3b5e"/><circle cx="234.55" cy="205.28" r="1.22" fill="#2c3b5e"/><circle cx="234.55" cy="211.47" r="1.22" fill="#2c3b5e"/><circle cx="234.55" cy="217.65" r="1.22" fill="#2c3b5e"/><circle cx="234.55" cy="223.83" r="1.22" fill="#2c3b5e"/><circle cx="234.55" cy="230.02" r="1.22" fill="#2c3b5e"/></g><g><circle cx="240.21" cy="168.18" r="1.22" fill="#2c3b5e"/><circle cx="240.21" cy="174.36" r="1.22" fill="#2c3b5e"/><circle cx="240.21" cy="180.55" r="1.22" fill="#2c3b5e"/><circle cx="240.21" cy="186.73" r="1.22" fill="#2c3b5e"/><circle cx="240.21" cy="192.92" r="1.22" fill="#2c3b5e"/><circle cx="240.21" cy="199.1" r="1.22" fill="#2c3b5e"/><circle cx="240.21" cy="205.28" r="1.22" fill="#2c3b5e"/><circle cx="240.21" cy="211.47" r="1.22" fill="#2c3b5e"/><circle cx="240.21" cy="217.65" r="1.22" fill="#2c3b5e"/><circle cx="240.21" cy="223.83" r="1.22" fill="#2c3b5e"/><circle cx="240.21" cy="230.02" r="1.22" fill="#2c3b5e"/></g><g><circle cx="245.88" cy="168.18" r="1.22" fill="#2c3b5e"/><circle cx="245.88" cy="174.36" r="1.22" fill="#2c3b5e"/><circle cx="245.88" cy="180.55" r="1.22" fill="#2c3b5e"/><circle cx="245.88" cy="186.73" r="1.22" fill="#2c3b5e"/><circle cx="245.88" cy="192.92" r="1.22" fill="#2c3b5e"/><circle cx="245.88" cy="199.1" r="1.22" fill="#2c3b5e"/><circle cx="245.88" cy="205.28" r="1.22" fill="#2c3b5e"/><circle cx="245.88" cy="211.47" r="1.22" fill="#2c3b5e"/><circle cx="245.88" cy="217.65" r="1.22" fill="#2c3b5e"/><circle cx="245.88" cy="223.83" r="1.22" fill="#2c3b5e"/><circle cx="245.88" cy="230.02" r="1.22" fill="#2c3b5e"/></g><g><circle cx="251.54" cy="168.18" r="1.22" fill="#2c3b5e"/><circle cx="251.54" cy="174.36" r="1.22" fill="#2c3b5e"/><circle cx="251.54" cy="180.55" r="1.22" fill="#2c3b5e"/><circle cx="251.54" cy="186.73" r="1.22" fill="#2c3b5e"/><circle cx="251.54" cy="192.92" r="1.22" fill="#2c3b5e"/><circle cx="251.54" cy="199.1" r="1.22" fill="#2c3b5e"/><circle cx="251.54" cy="205.28" r="1.22" fill="#2c3b5e"/><circle cx="251.54" cy="211.47" r="1.22" fill="#2c3b5e"/><circle cx="251.54" cy="217.65" r="1.22" fill="#2c3b5e"/><circle cx="251.54" cy="223.83" r="1.22" fill="#2c3b5e"/><circle cx="251.54" cy="230.02" r="1.22" fill="#2c3b5e"/></g><g><circle cx="257.2" cy="168.18" r="1.22" fill="#2c3b5e"/><circle cx="257.2" cy="174.36" r="1.22" fill="#2c3b5e"/><circle cx="257.2" cy="180.55" r="1.22" fill="#2c3b5e"/><circle cx="257.2" cy="186.73" r="1.22" fill="#2c3b5e"/><circle cx="257.2" cy="192.92" r="1.22" fill="#2c3b5e"/><circle cx="257.2" cy="199.1" r="1.22" fill="#2c3b5e"/><circle cx="257.2" cy="205.28" r="1.22" fill="#2c3b5e"/><circle cx="257.2" cy="211.47" r="1.22" fill="#2c3b5e"/><circle cx="257.2" cy="217.65" r="1.22" fill="#2c3b5e"/><circle cx="257.2" cy="223.83" r="1.22" fill="#2c3b5e"/><circle cx="257.2" cy="230.02" r="1.22" fill="#2c3b5e"/></g><g><circle cx="245.88" cy="155.86" r="1.22" fill="#2c3b5e"/><circle cx="245.88" cy="162.04" r="1.22" fill="#2c3b5e"/></g><g><circle cx="251.54" cy="155.86" r="1.22" fill="#2c3b5e"/><circle cx="251.54" cy="162.04" r="1.22" fill="#2c3b5e"/></g><circle cx="257.2" cy="162.04" r="1.22" fill="#2c3b5e"/><g><circle cx="262.86" cy="168.18" r="1.22" fill="#2c3b5e"/><circle cx="262.86" cy="174.36" r="1.22" fill="#2c3b5e"/><circle cx="262.86" cy="180.55" r="1.22" fill="#2c3b5e"/><circle cx="262.86" cy="186.73" r="1.22" fill="#2c3b5e"/><circle cx="262.86" cy="192.92" r="1.22" fill="#2c3b5e"/></g><g><circle cx="268.53" cy="180.55" r="1.22" fill="#2c3b5e"/><circle cx="268.53" cy="186.73" r="1.22" fill="#2c3b5e"/><circle cx="268.53" cy="192.92" r="1.22" fill="#2c3b5e"/></g></g><path d="M321.65,370.24l-3.9-8.79-64.05,20.95h0c-.89,3.4,1.53,7.29,2.91,9.52l65.03-21.68Z" fill="#2c3b5e" stroke="#2c3b5e" stroke-miterlimit="10" stroke-width="3"/><circle cx="225.74" cy="125.29" r="1.58" fill="#2c3b5e"/><circle cx="212.01" cy="121.16" r="1.58" fill="#2c3b5e"/></g><g><path d="M123.57,393.42s-16.43-70.68,0-81.57,7.83,74.62,6.26,81.57" fill="#2c3b5e" stroke="#2c3b5e" stroke-miterlimit="10" stroke-width="3"/><path d="M116.26,393.37s-23.08-15.95-23.09-28.87c0-9.91,17.35,2.82,23.09,12.18" fill="none" stroke="#2c3b5e" stroke-miterlimit="10" stroke-width="3"/><path d="M136.87,374.15s3.52-38.35,17.61-37.57c14.09.78-15.26,56.78-15.26,56.78" fill="none" stroke="#2c3b5e" stroke-miterlimit="10" stroke-width="3"/></g></svg>